# xmcd CD database file
#
# Track frame offsets:
#	150
#	37966
#	56202
#	94202
#	124377
#	166405
#	201006
#	226457
#	264529
#
# Disc length: 3905 seconds
#
# Revision: 0
# Processed by: cddbd v1.5.2PL0 Copyright (c) Steve Scherf et al.
# Submitted via: CDex 1.79
#
DISCID=7e0f3f09
DTITLE=Christian McBride Trio - Out Here
DYEAR=2013
DGENRE=Jazz
TTITLE0=Ham Hocks And Cabbage
TTITLE1=Hallelujah Time
TTITLE2=I Guess I'll Have To Forget
TTITLE3=Easy Walker
TTITLE4=My Favorite Things
TTITLE5=East Of The Sun (And West Of The Moon)
TTITLE6=Cherokee
TTITLE7=I Have Dreamed
TTITLE8=Who's Making Love
EXTD=YEAR: 2013
EXTT0=
EXTT1=
EXTT2=
EXTT3=
EXTT4=
EXTT5=
EXTT6=
EXTT7=
EXTT8=
PLAYORDER=
